<svg id="Layer_2" data-name="Layer 2" xmlns="http://www.w3.org/2000/svg" viewBox="0 0 218.28 236.14"><defs><style>.cls-1{fill:none;stroke:#b17f53;stroke-miterlimit:10;stroke-width:3px;}.cls-2{fill:#b17f53;}.cls-3{fill:#fff;}</style></defs><title>schweep-logo</title><path class="cls-1" d="M116.5,250.5s-30-17-31-87c0,0,41,4,55,17" transform="translate(-83.98 -81)"/><path class="cls-1" d="M139.07,179.28s14.43-6.78,22.43-7.78c0,0,17-30,50-41,0,0,15,17,9,71" transform="translate(-83.98 -81)"/><path class="cls-1" d="M221.92,172.28s27.58-6.78,47.58,10.22,28,14,28,14-4,5-13,7" transform="translate(-83.98 -81)"/><path class="cls-1" d="M290.46,201.5s7-1,8,2-11,10-11,10" transform="translate(-83.98 -81)"/><path class="cls-1" d="M282.5,221.5a18.65,18.65,0,0,1,9,11c6-13,0-21.54,0-21.54" transform="translate(-83.98 -81)"/><path class="cls-1" d="M297.5,219.5" transform="translate(-83.98 -81)"/><path class="cls-1" d="M294.16,219.88c34.67,75.38-78.66,95.62-78.66,95.62s-21-28-3-67c0,0,11-20,34-22s20-13,20-13" transform="translate(-83.98 -81)"/><path class="cls-1" d="M271.41,293.7a12.08,12.08,0,0,0,1.09-7.2c-2,3-9,3-9,3,6-10,1-14,1-14-1.56,2.42-5,3.69-10,4-.06-3.67,2.24-7,6-10-6-3-15,1-15,1q.31-8.65,7-12c-14-7-28,4-28,4l2-5c-4,1-8,6-8,6l5-13c-13,5-17.39,18.55-17.39,18.55" transform="translate(-83.98 -81)"/><path class="cls-1" d="M216.5,197.5s20.3,18.35,6.15,39.18" transform="translate(-83.98 -81)"/><path class="cls-1" d="M209.5,188.5s-18-17-26-19" transform="translate(-83.98 -81)"/><path class="cls-1" d="M184.5,172.5c-2.26-.57.65-26.26,11.08-34.69" transform="translate(-83.98 -81)"/><path class="cls-1" d="M205.21,279.51s-13.71,23-24.71,21-2-17-2-17" transform="translate(-83.98 -81)"/><path class="cls-1" d="M183.5,273.5s-4,16-8,6c0,0-7,8-6-1,0,0-11,2-7-6" transform="translate(-83.98 -81)"/><path class="cls-1" d="M93.08,214.53c6.49,10.43,14.94,17.95,24.42,24,0,0-6,38,18,36s43-4,52-2c0,0,12,3,18-11s11.66-19.4,11.66-19.4" transform="translate(-83.98 -81)"/><path class="cls-1" d="M110.5,223.5s11.41-29,16-31c8.37-3.62-24.69-28-29-27.34" transform="translate(-83.98 -81)"/><path class="cls-1" d="M140.5,249.5s3-16,18-8" transform="translate(-83.98 -81)"/><path class="cls-1" d="M192.5,229.5s3-16,18-8" transform="translate(-83.98 -81)"/><path class="cls-1" d="M119,263.34s41.48-6.84,48.48-3.84c0,0,22-10,25-10s7.55-2.81,8-5c.49-2.37,26.66-25.55,27.08-25.24" transform="translate(-83.98 -81)"/><path class="cls-1" d="M186.5,263.5s5,3,6,3,2-5,0-6S186.5,263.5,186.5,263.5Z" transform="translate(-83.98 -81)"/><path class="cls-1" d="M152.65,273.05S152.3,294,164.5,293.5c11.55-.47,7.26-9.41,6.92-10.83" transform="translate(-83.98 -81)"/><ellipse class="cls-2" cx="145.62" cy="69.16" rx="5.1" ry="5.34"/><ellipse class="cls-2" cx="156.63" cy="52.49" rx="7.14" ry="7.48"/><ellipse class="cls-2" cx="167.85" cy="23" rx="12.83" ry="14.28"/><ellipse class="cls-2" cx="174.62" cy="34.5" rx="12.47" ry="13.88"/><ellipse class="cls-2" cx="182.1" cy="14.28" rx="12.83" ry="14.28"/><ellipse class="cls-2" cx="193.51" cy="37.28" rx="12.83" ry="14.28"/><ellipse class="cls-2" cx="198.5" cy="15.86" rx="12.83" ry="14.28"/><ellipse class="cls-2" cx="204.2" cy="28.56" rx="12.83" ry="14.28"/><path class="cls-3" d="M250.5,117c-.12-.84-.23-1.53-.34-2.08l.29-.57.5-1.11,2.92-6.38.9-2.08-.54.13-.2,0-.72.18-1.25.32c-1,.26-2,.55-3,.86-.07-.48-.16-1-.27-1.54,0-.1-.05-.25-.1-.43l4.55-1.14,2.73-.71,1.49-.39c.09.68.21,1.36.34,2.06l-.42.82c-.08.17-.16.33-.23.51l-2.11,4.73-1.87,4.07.66-.16q2.78-.71,3.57-.93c.53-.15,1.1-.32,1.72-.53.14.87.25,1.54.34,2l-4.32,1.08-3,.79Z" transform="translate(-83.98 -81)"/><path class="cls-3" d="M262.8,104.31q.19-1.26.27-2.1l.44-.44.8-.87,4.59-5,1.46-1.64-.55-.07-.21,0-.73-.09-1.27-.14q-1.58-.18-3.09-.24c.08-.48.15-1,.2-1.56,0-.1,0-.25,0-.44,1.45.18,3,.36,4.63.54l2.8.3,1.52.16q-.17,1-.27,2.07l-.63.63-.37.39-3.36,3.74-2.93,3.19.67.09c1.89.21,3.1.34,3.64.38s1.14.09,1.79.12q-.18,1.29-.27,2l-4.4-.51-3.09-.34Z" transform="translate(-83.98 -81)"/><path class="cls-3" d="M273.94,113.92c.43-.7.77-1.29,1-1.77l.56-.2,1-.42,6.06-2.4,1.94-.82-.47-.32-.19-.12-.62-.42-1.1-.72c-.91-.6-1.82-1.15-2.71-1.66.25-.4.5-.84.76-1.32.05-.09.11-.22.19-.39l4,2.65,2.42,1.58,1.32.86c-.34.56-.69,1.14-1,1.75l-.81.28c-.16,0-.32.12-.48.18l-4.46,1.83L277.56,114l.58.39c1.64,1.07,2.69,1.75,3.17,2s1,.61,1.57.94c-.43.72-.77,1.3-1,1.72l-3.8-2.51-2.68-1.75Z" transform="translate(-83.98 -81)"/></svg>