<svg xmlns="http://www.w3.org/2000/svg" xmlns:xlink="http://www.w3.org/1999/xlink" viewBox="0 0 1366 738.44"><defs><style>.cls-1{fill:url(#linear-gradient);}</style><linearGradient id="linear-gradient" x1="811.28" y1="86.12" x2="416.26" y2="957.9" gradientUnits="userSpaceOnUse"><stop offset="0" stop-color="#251627"/><stop offset="0.26" stop-color="#8c7892"/><stop offset="0.39" stop-color="#ab95b2"/><stop offset="0.55" stop-color="#c7b0d0"/><stop offset="0.71" stop-color="#dcc3e5"/><stop offset="0.86" stop-color="#e8cff2"/><stop offset="1" stop-color="#ecd3f6"/></linearGradient></defs><title>Layer 1</title><g id="Layer_2" data-name="Layer 2"><g id="Layer_1-2" data-name="Layer 1"><path class="cls-1" d="M24,718.5c39.72-22.81,85.39-35,131.17-36,50.86-1.06,97,33.1,147.55,27.07,17.24-2,33.33-9.38,49.82-14.84a238.59,238.59,0,0,1,167.19,7.1c12.83,5.5,25.82,12.27,39.77,11.88,11.85-.33,22.83-5.82,33.74-10.45,67.19-28.51,146.72-26.28,212.2,6,10.12,5,20.25,10.73,31.47,11.78,13.72,1.29,26.93-4.6,39.88-9.31a249,249,0,0,1,181.16,5.19c11.35,4.87,22.77,10.71,35.11,11,13.91.28,26.8-6.54,39.55-12.08a233.7,233.7,0,0,1,95.24-19.53c49.07.32,96.86,15.84,138.16,42.16V308s-96-124-346-124S683,0,683,0H0V734.1A265,265,0,0,1,24,718.5Z"/></g></g></svg>