<?xml version="1.0" standalone="no"?>
<!DOCTYPE svg PUBLIC "-//W3C//DTD SVG 20010904//EN"
 "http://www.w3.org/TR/2001/REC-SVG-20010904/DTD/svg10.dtd">
<svg version="1.0" xmlns="http://www.w3.org/2000/svg"
 width="985.000000pt" height="985.000000pt" viewBox="0 0 985.000000 985.000000"
 preserveAspectRatio="xMidYMid meet">
<metadata>
Created by potrace 1.11, written by Peter Selinger 2001-2013
</metadata>
<g transform="translate(0.000000,985.000000) scale(0.100000,-0.100000)"
fill="#000000" stroke="none">
<path d="M7863 9834 c-159 -33 -318 -171 -382 -331 -7 -18 -18 -30 -23 -27
-15 9 -142 5 -195 -6 -132 -29 -282 -148 -351 -277 -143 -270 -71 -629 160
-799 55 -40 64 -51 70 -87 23 -139 82 -252 180 -343 154 -145 368 -175 559
-79 25 13 60 35 77 49 16 15 32 26 35 26 2 0 16 -17 29 -37 62 -93 189 -184
298 -213 111 -30 262 -8 371 54 89 50 216 197 235 271 4 16 21 25 76 39 98 25
160 61 238 136 124 121 184 271 182 457 -3 172 -79 348 -196 451 -35 30 -38
37 -42 100 -16 248 -164 460 -372 534 -31 11 -92 23 -134 25 -108 7 -196 -16
-301 -79 l-39 -23 -16 20 c-21 26 -76 67 -124 94 -90 50 -226 68 -335 45z"/>
<path d="M6803 7953 c-56 -19 -122 -79 -158 -144 -26 -47 -30 -65 -32 -144 -2
-105 18 -160 83 -228 210 -218 567 -12 499 288 -43 186 -216 287 -392 228z"/>
<path d="M5570 7806 c-523 -199 -963 -489 -1385 -911 -82 -83 -175 -179 -205
-215 -30 -35 -69 -80 -85 -99 -17 -20 -46 -56 -65 -81 -19 -25 -37 -47 -40
-50 -10 -8 -123 -169 -175 -247 -26 -40 -53 -73 -59 -74 -31 -2 -166 -36 -256
-64 -120 -38 -379 -136 -507 -193 l-109 -48 -65 43 c-212 143 -575 286 -1009
397 -153 39 -559 123 -675 140 -22 4 -69 10 -105 16 -83 12 -132 19 -250 35
-14 2 -52 6 -85 10 -33 3 -73 8 -89 11 l-28 6 6 -238 c4 -132 9 -257 10 -279
2 -22 7 -83 11 -135 3 -52 8 -106 10 -120 2 -14 7 -59 10 -100 3 -41 12 -127
21 -190 8 -63 17 -131 20 -150 5 -42 12 -86 19 -120 3 -13 7 -42 11 -65 13
-93 59 -303 104 -480 147 -577 367 -1060 658 -1445 96 -127 287 -323 374 -385
l55 -39 7 -76 c29 -322 108 -554 244 -716 99 -117 224 -188 387 -219 31 -6
212 -6 275 0 53 4 167 15 235 20 33 3 80 8 105 10 25 3 83 7 129 10 47 4 88 8
92 11 13 7 17 -8 23 -86 4 -41 9 -86 11 -100 3 -14 7 -41 10 -60 15 -92 60
-234 101 -317 115 -234 308 -327 559 -268 162 37 247 122 261 263 5 49 -6 145
-23 188 -2 6 12 23 32 38 l36 28 33 -34 34 -33 -28 -60 c-73 -157 -100 -268
-96 -390 6 -165 100 -273 264 -305 219 -41 460 92 748 415 77 87 204 248 223
283 17 31 27 20 29 -30 1 -24 4 -60 7 -80 3 -21 8 -57 11 -80 38 -286 139
-612 271 -871 65 -127 147 -255 169 -264 18 -7 83 6 304 59 568 137 1151 349
1615 587 83 42 161 84 175 92 14 8 77 46 140 84 97 58 270 170 305 198 6 4 45
34 87 66 374 283 662 627 828 985 41 89 123 316 114 316 -2 0 0 8 5 18 5 9 12
34 15 56 4 21 8 41 10 45 3 4 8 34 11 66 4 33 9 63 11 66 6 10 18 185 18 269
0 90 -12 282 -19 303 -2 6 -6 30 -9 52 -3 22 -12 74 -21 115 -9 41 -20 95 -25
120 -15 75 -88 293 -141 422 -56 136 -65 165 -72 223 -7 61 -24 124 -52 195
-23 58 -24 65 -9 73 26 15 145 117 182 156 73 78 92 162 50 217 -31 40 -46 51
-102 72 l-48 19 41 32 c38 30 216 239 209 246 -2 1 -50 -16 -108 -37 -147 -56
-222 -52 -415 24 -222 87 -435 226 -800 522 -146 118 -287 207 -438 276 -87
40 -226 93 -277 106 -8 2 -58 14 -110 28 -100 26 -236 50 -360 63 -140 15
-630 6 -660 -12 -3 -2 -28 -6 -56 -9 -38 -5 -51 -4 -51 6 -5 112 -17 273 -28
368 -3 30 -8 73 -11 95 -2 22 -6 51 -9 65 -2 14 -7 45 -11 70 -27 203 -102
503 -170 682 -82 218 -204 430 -249 435 -11 2 -72 -17 -135 -41z m141 -166
c117 -197 234 -564 284 -890 3 -19 7 -46 10 -60 2 -14 7 -47 10 -75 3 -27 8
-66 10 -85 23 -179 39 -470 38 -710 0 -155 -11 -472 -18 -550 -2 -19 -6 -79
-10 -133 -4 -53 -8 -105 -10 -115 -2 -9 -4 -28 -4 -42 -1 -23 -3 -22 -39 19
l-38 43 -42 -47 -42 -47 62 -69 c85 -95 175 -223 230 -327 45 -86 96 -207 103
-243 2 -11 6 -23 9 -27 5 -8 9 -29 21 -97 3 -16 8 -37 11 -46 3 -11 -37 -51
-128 -129 -110 -95 -344 -301 -408 -360 -9 -8 -70 -64 -136 -125 -231 -213
-417 -407 -447 -467 -29 -57 -72 -95 -152 -135 -41 -21 -67 -28 -145 -39 -53
-7 -117 -28 -300 -99 -138 -54 -505 -210 -640 -272 -65 -30 -81 -34 -120 -28
-94 15 -320 19 -470 10 -126 -8 -314 -25 -450 -40 -19 -2 -62 -7 -95 -10 -33
-3 -73 -8 -90 -10 -16 -2 -52 -7 -80 -10 -27 -3 -61 -8 -75 -10 -14 -2 -47 -6
-75 -10 -108 -14 -121 -16 -145 -20 -14 -3 -52 -7 -85 -11 -33 -3 -62 -7 -65
-9 -3 -2 -30 -6 -60 -10 -30 -3 -80 -10 -110 -15 -129 -23 -138 -23 -143 -3
-13 41 -26 100 -32 133 -3 19 -8 42 -10 50 -11 42 -20 195 -20 360 0 172 4
235 21 381 l6 56 -84 53 c-356 226 -703 565 -911 890 -28 45 -62 133 -83 215
-1 6 -12 46 -25 90 -23 87 -50 197 -75 315 -22 103 -22 103 -40 205 -21 122
-23 134 -29 180 -7 54 -17 117 -20 135 -4 21 -20 166 -29 260 -3 25 -8 81 -11
125 -3 44 -8 103 -10 130 -3 28 -8 134 -11 237 -7 182 -6 187 12 184 11 -2 47
-7 79 -11 33 -4 67 -9 75 -10 14 -3 109 -16 140 -20 8 -1 31 -5 50 -9 19 -3
46 -8 60 -10 78 -13 115 -29 255 -115 205 -125 413 -280 620 -461 96 -84 239
-237 285 -307 60 -90 64 -121 18 -148 -74 -44 -176 -197 -311 -469 -57 -115
-177 -373 -177 -381 0 -2 -16 -38 -35 -79 -19 -42 -35 -78 -35 -80 0 -2 -8
-21 -17 -42 -9 -22 -17 -41 -18 -44 -1 -3 -5 -14 -10 -25 -5 -11 -23 -56 -42
-100 -18 -44 -33 -84 -33 -90 0 -11 107 -52 113 -44 2 2 41 93 86 202 45 109
97 230 115 270 18 40 43 97 56 127 51 117 228 458 272 525 48 72 104 135 119
135 5 0 22 14 39 31 91 95 27 248 -202 480 -145 148 -377 339 -578 479 -57 39
-68 50 -45 45 232 -53 648 -176 740 -219 17 -8 55 -24 85 -36 133 -52 327
-164 423 -244 l40 -33 31 33 c21 22 71 50 150 84 272 116 555 211 701 235 73
13 83 17 94 43 34 75 195 296 350 482 101 121 357 383 451 462 30 26 69 58 85
73 17 14 65 53 107 86 l77 59 -38 -82 c-86 -186 -171 -469 -196 -648 -3 -25
-8 -52 -10 -60 -17 -63 -24 -285 -10 -351 18 -90 60 -119 79 -54 7 25 18 41
30 43 41 8 354 -206 603 -413 59 -49 113 -94 119 -100 11 -10 132 -119 210
-188 l41 -36 44 45 44 45 -45 41 c-25 22 -63 57 -85 77 -22 20 -88 77 -146
126 -318 270 -533 426 -711 515 l-67 33 5 66 c2 36 6 77 9 91 2 14 7 45 10 70
26 209 135 552 231 726 115 208 191 275 462 406 79 38 326 142 349 148 1 0 21
-31 44 -70z m1181 -1615 c48 -3 98 -8 110 -10 13 -2 55 -8 93 -14 102 -16 126
-21 162 -32 17 -5 42 -12 56 -14 84 -16 293 -96 413 -160 143 -75 196 -111
394 -270 292 -234 450 -340 650 -437 121 -59 254 -108 302 -111 15 -1 28 -5
28 -9 0 -22 -207 -119 -324 -152 -52 -15 -57 -19 -52 -39 3 -12 9 -39 12 -59
6 -35 8 -37 38 -31 17 3 69 18 116 35 47 16 101 33 120 38 51 13 169 5 214
-14 l38 -16 -17 -27 c-35 -56 -203 -192 -343 -278 -35 -21 -65 -42 -68 -46 -3
-5 1 -19 9 -31 52 -86 46 -81 74 -62 15 9 41 25 58 35 l32 19 26 -77 c30 -93
41 -169 39 -280 -1 -83 -3 -94 -23 -192 -18 -88 -20 -88 -72 -13 -25 37 -74
95 -109 128 -63 60 -163 134 -183 134 -9 0 -70 -101 -63 -104 52 -29 136 -97
187 -152 75 -80 126 -175 166 -304 41 -133 37 -129 65 -68 13 29 36 80 51 113
42 92 86 236 80 260 -1 6 3 5 9 -1 6 -6 12 -18 14 -25 1 -8 14 -50 28 -94 23
-68 44 -139 54 -180 26 -111 26 -112 44 -215 19 -109 21 -138 24 -305 5 -239
-17 -394 -86 -615 -32 -103 -41 -124 -98 -245 -124 -264 -356 -555 -629 -789
-46 -39 -221 -176 -226 -176 -2 0 -4 28 -4 61 0 65 -19 205 -31 227 -4 9 -21
-8 -50 -53 -23 -36 -54 -74 -67 -85 -24 -19 -90 -43 -150 -55 l-32 -6 23 59
c82 209 64 385 -52 498 -25 24 -49 44 -52 44 -4 0 -22 -22 -40 -49 -47 -68
-128 -110 -256 -131 l-42 -6 9 29 c22 76 125 203 235 288 l56 43 -55 28 c-101
51 -188 68 -312 64 -130 -6 -172 -12 -242 -36 -28 -10 -54 -16 -56 -14 -9 9
14 90 43 149 40 83 113 153 215 205 47 24 85 47 85 50 0 9 -182 93 -246 114
-147 48 -365 55 -539 18 -96 -21 -257 -78 -331 -117 l-45 -24 7 22 c3 12 15
42 25 66 11 24 18 46 16 48 -9 8 -165 -40 -213 -66 -30 -16 -54 -25 -54 -21 0
5 20 59 44 122 85 216 107 280 94 275 -295 -116 -375 -165 -540 -329 -60 -59
-108 -106 -108 -105 0 11 70 196 107 285 66 155 170 299 334 463 251 251 554
419 874 488 85 18 122 24 255 36 57 5 62 6 200 31 401 71 647 272 641 523 0
30 -3 56 -5 58 -5 6 -99 -18 -110 -28 -5 -4 -10 -28 -11 -52 -8 -136 -143
-260 -360 -332 -125 -41 -206 -56 -422 -80 -210 -23 -339 -54 -508 -122 -87
-36 -120 -52 -234 -116 -47 -26 -53 -28 -47 -11 18 43 48 157 61 231 13 77 13
281 0 353 -38 202 -112 384 -230 565 -43 65 -52 87 -50 115 2 19 7 67 10 105
4 39 8 86 10 105 5 57 17 210 21 270 1 30 6 188 10 350 4 187 11 297 17 302 6
3 38 10 71 13 34 4 70 9 81 11 11 2 72 7 135 10 63 4 116 8 118 9 4 4 187 -3
284 -10z m-595 -2132 c-14 -126 -49 -237 -115 -368 -37 -74 -61 -105 -133
-176 -189 -184 -299 -319 -417 -514 -70 -114 -176 -321 -232 -450 -105 -245
-238 -383 -426 -441 -74 -23 -96 -26 -181 -21 -54 3 -109 8 -123 11 -14 3 -52
8 -85 12 -33 3 -66 7 -74 10 -16 5 -480 5 -571 0 -106 -6 -276 -17 -335 -21
-93 -7 -195 -15 -250 -20 -108 -9 -192 -16 -241 -20 -27 -3 -79 -7 -115 -10
-35 -3 -91 -7 -124 -10 -33 -3 -85 -8 -115 -10 -30 -3 -82 -7 -115 -11 -298
-29 -448 7 -580 140 -55 55 -144 190 -133 202 3 2 52 11 109 19 57 9 115 18
129 20 27 4 99 14 140 20 44 7 164 22 229 30 23 3 55 7 70 9 64 10 246 31 351
41 36 4 81 8 100 10 226 22 291 26 460 30 156 2 263 -6 311 -26 23 -9 49 0
200 66 96 42 189 83 208 92 78 36 412 172 491 201 115 41 146 49 210 58 142
18 303 126 352 237 17 37 189 215 368 382 122 114 205 190 289 265 46 41 98
88 115 103 17 16 64 56 105 90 41 34 83 72 94 85 33 35 40 27 34 -35z m-4932
-392 c50 -40 97 -78 105 -84 22 -18 180 -129 213 -150 21 -14 26 -23 23 -43
-6 -31 -19 -213 -19 -276 -1 -27 -5 -48 -9 -48 -5 0 -59 51 -121 113 -194 193
-346 408 -494 697 -33 63 -62 122 -65 130 -3 8 58 -48 136 -126 77 -77 182
-173 231 -213z m4705 -856 c0 -6 -105 -283 -125 -330 -31 -71 -156 -407 -153
-410 2 -2 55 63 118 143 110 140 266 309 276 299 2 -2 -9 -37 -25 -78 -16 -41
-39 -98 -51 -128 l-21 -54 46 37 c76 63 229 176 238 176 4 0 24 10 45 23 58
36 208 98 301 123 162 45 355 48 489 9 l53 -16 -57 -62 c-97 -104 -150 -251
-158 -434 l-4 -92 51 23 c63 28 201 74 242 80 17 3 48 8 70 12 38 6 99 8 174
5 l35 -1 -31 -32 c-51 -54 -111 -147 -134 -207 -12 -33 -23 -90 -25 -139 l-5
-84 83 6 c94 7 119 11 200 31 61 15 152 58 176 82 13 13 16 13 25 -2 5 -10 11
-48 13 -84 5 -107 -28 -206 -125 -377 l-41 -71 103 3 c107 3 205 18 271 40 21
8 40 14 42 14 9 0 3 -39 -11 -82 -15 -44 -21 -48 -168 -136 -153 -91 -407
-224 -527 -277 -36 -15 -94 -41 -130 -57 -97 -43 -94 -43 -240 -98 -193 -74
-359 -131 -567 -194 -167 -51 -501 -137 -582 -151 -19 -3 -38 -8 -42 -11 -16
-9 -118 172 -184 326 -39 91 -137 370 -130 370 3 0 0 11 -5 25 -11 29 -49 212
-56 271 -3 23 -7 53 -9 65 -19 95 -25 394 -12 564 16 210 21 228 77 344 66
136 147 249 255 357 108 109 235 205 235 179z m-654 -566 c-25 -127 -44 -307
-45 -434 -1 -46 -8 -61 -67 -150 -232 -347 -478 -599 -681 -696 -96 -46 -198
-52 -275 -17 -30 14 -64 39 -76 55 -62 87 -43 242 55 449 21 44 37 85 36 92 0
6 3 12 7 12 22 0 86 85 125 165 54 111 98 252 82 259 -25 10 41 4 98 -9 74
-16 228 -12 310 10 86 22 196 79 265 136 63 52 170 178 170 199 0 7 3 11 6 8
3 -3 -1 -39 -10 -79z m-961 -251 c15 -15 -73 -238 -118 -300 -11 -14 -25 -24
-31 -22 -14 5 -38 49 -70 128 l-23 59 -34 -39 c-83 -93 -142 -144 -166 -144
-13 0 -14 13 -9 91 l7 90 -48 -8 c-26 -4 -89 -8 -138 -8 -72 0 -97 4 -119 19
-26 16 -28 22 -23 63 2 24 7 46 9 49 10 9 49 13 201 20 83 3 153 8 155 9 7 6
401 0 407 -7z m-902 -68 c-7 -50 17 -117 55 -152 36 -34 106 -57 193 -62 39
-2 72 -6 74 -8 1 -1 5 -22 8 -45 6 -53 31 -92 68 -106 22 -9 30 -20 39 -58 25
-102 9 -174 -46 -218 -71 -56 -261 -73 -349 -32 -58 27 -130 100 -167 167 -25
45 -75 182 -84 229 -16 80 -31 188 -33 229 -1 27 -2 52 -3 55 -3 31 -7 30 184
39 l66 3 -5 -41z"/>
<path d="M5268 4144 c-2 -2 -21 -6 -42 -9 -81 -13 -174 -75 -249 -167 -33 -40
-106 -172 -111 -200 -1 -7 -8 -30 -15 -52 -11 -32 -11 -40 0 -47 11 -7 40 -12
52 -8 1 0 14 -4 29 -10 25 -9 27 -8 38 27 7 20 20 56 31 79 10 24 19 45 19 48
0 18 71 107 114 143 107 90 249 95 426 16 33 -15 62 -25 64 -23 8 10 56 96 56
102 0 9 -105 55 -179 77 -58 18 -222 35 -233 24z"/>
<path d="M3108 3309 c-142 -22 -251 -95 -331 -222 -65 -102 -117 -244 -94
-252 35 -13 103 -23 108 -17 4 4 12 25 19 47 42 137 143 263 241 301 92 37
245 17 370 -46 l35 -19 29 55 c16 30 26 56 24 58 -2 2 -22 12 -44 23 -117 59
-258 87 -357 72z"/>
<path d="M4845 2433 c-76 -17 -145 -60 -238 -150 l-57 -56 27 -17 c25 -15 52
-30 188 -105 74 -42 135 -57 167 -44 42 17 69 78 75 170 7 101 -18 161 -81
190 -42 19 -47 20 -81 12z m33 -140 c9 -17 9 -90 0 -99 -3 -2 -30 10 -62 27
l-57 31 23 17 c23 16 67 39 80 40 4 1 11 -7 16 -16z"/>
<path d="M6375 7174 c-140 -51 -187 -245 -87 -360 46 -52 106 -77 173 -71 109
10 184 88 196 202 9 90 -38 179 -118 220 -40 21 -118 25 -164 9z"/>
</g>
</svg>
